<svg width="64" height="64" viewBox="0 0 64 64" xmlns="http://www.w3.org/2000/svg">
  <defs>
    <linearGradient id="logoGradient" x1="0%" y1="0%" x2="100%" y2="100%">
      <stop offset="0%" style="stop-color:#3b82f6;stop-opacity:1" />
      <stop offset="50%" style="stop-color:#6366f1;stop-opacity:1" />
      <stop offset="100%" style="stop-color:#8b5cf6;stop-opacity:1" />
    </linearGradient>
  </defs>
  
  <!-- Modern spinning wheel design representing ForeFold AI -->
  <circle cx="32" cy="32" r="28" fill="none" stroke="url(#logoGradient)" stroke-width="3"/>
  
  <!-- Inner rotating elements -->
  <g transform="translate(32,32)">
    <!-- Central core -->
    <circle cx="0" cy="0" r="6" fill="url(#logoGradient)"/>
    
    <!-- Rotating segments -->
    <g>
      <path d="M-20,0 A20,20 0 0,1 0,-20 L0,-12 A12,12 0 0,0 -12,0 Z" fill="url(#logoGradient)" opacity="0.8"/>
      <path d="M0,20 A20,20 0 0,1 20,0 L12,0 A12,12 0 0,0 0,12 Z" fill="url(#logoGradient)" opacity="0.6"/>
      <path d="M0,-20 A20,20 0 0,1 20,0 L12,0 A12,12 0 0,0 0,-12 Z" fill="url(#logoGradient)" opacity="0.4"/>
    </g>
    
    <!-- Small accent dots -->
    <circle cx="16" cy="0" r="2" fill="#3b82f6"/>
    <circle cx="-16" cy="0" r="2" fill="#6366f1"/>
    <circle cx="0" cy="16" r="2" fill="#8b5cf6"/>
    <circle cx="0" cy="-16" r="2" fill="#3b82f6"/>
  </g>
</svg>